<svg xmlns="http://www.w3.org/2000/svg" viewBox="0 0 1200 400" width="1200" height="400" preserveAspectRatio="xMidYMid slice" fill="none" stroke="currentColor" role="img" aria-label="Ruled ledger field: records in order, no imagery of people as data."><title>Ruled ledger field: records in order, no imagery of people as data.</title><!-- Linkbot Brand OS v0.1.0 — abstract field, generated. Not photography. --><g fill="none" stroke="currentColor"><path d="M40 48 H1160" stroke-width="1" opacity="0.50"/><path d="M40 80 H1160" stroke-width="1" opacity="0.47"/><path d="M40 112 H1160" stroke-width="1" opacity="0.44"/><path d="M40 144 H1160" stroke-width="1" opacity="0.41"/><path d="M40 176 H1160" stroke-width="1" opacity="0.38"/><path d="M40 208 H1160" stroke-width="1" opacity="0.35"/><path d="M40 240 H1160" stroke-width="1" opacity="0.32"/><path d="M40 272 H1160" stroke-width="1" opacity="0.29"/><path d="M40 304 H1160" stroke-width="1" opacity="0.26"/><path d="M40 336 H1160" stroke-width="1" opacity="0.23"/><path d="M40 368 H1160" stroke-width="1" opacity="0.20"/><path d="M120 32 V368" stroke-width="1" opacity="0.12"/><path d="M120 64 V368" stroke-width="1" opacity="0.12"/><path d="M120 96 V368" stroke-width="1" opacity="0.12"/><path d="M120 128 V368" stroke-width="1" opacity="0.12"/><path d="M120 160 V368" stroke-width="1" opacity="0.12"/><path d="M120 192 V368" stroke-width="1" opacity="0.12"/><rect x="120" y="144" width="320" height="64" rx="2" fill="currentColor" opacity="0.06"/><circle cx="1040" cy="176" r="9" fill="currentColor" opacity="0.9"/></g></svg>
